<svg width="76" height="86" viewBox="0 0 76 86" fill="none" xmlns="http://www.w3.org/2000/svg">
	<path d="M0.415401 2.84694L5.99697 74.2531C6.08076 75.3253 6.80656 76.2397 7.83187 76.5648L37.2022 85.8766C37.7216 86.0412 38.2792 86.0412 38.7986 85.8766L68.169 76.5648C69.1943 76.2397 69.9201 75.3253 70.0039 74.2531L75.5854 2.84694C75.7055 1.31175 74.4922 0 72.9524 0H3.04861C1.50886 0 0.295556 1.31175 0.415401 2.84694ZM61.2719 25.0019H24.8957L25.9935 35.1252H60.4807L58.2247 63.9855L38.0005 70.3975L17.7764 63.9855L16.5977 48.9077H27.213V56.3036L38.2842 59.2749L49.2893 56.3036L50.143 44.5167H16.2544L14.0045 15.7321H61.9963L61.2719 25.0019Z" fill="#FC490B" />
</svg>
