<svg width="86" height="86" viewBox="0 0 86 86" fill="none" xmlns="http://www.w3.org/2000/svg">
	<g clip-path="url(#clip0_144_894)">
		<path d="M79.2028 19.8404C75.9987 14.8224 69.1089 12.7379 59.8253 13.9343C59.4974 13.9728 59.1498 14.0308 58.8219 14.0693C58.687 13.7609 58.552 13.4518 58.3975 13.1435C54.4025 4.67041 48.9405 0 42.996 0C37.0515 0 31.5707 4.67041 27.5946 13.1435C27.4597 13.4518 27.3051 13.7609 27.1702 14.0693C26.8226 14.012 26.4947 13.9728 26.1667 13.9343C16.8644 12.7183 9.99335 14.8224 6.78928 19.8404C3.58596 24.8583 4.5698 31.9797 9.5493 39.8926C10.2059 40.9352 10.9199 41.9771 11.6919 43.0001C10.9199 44.042 10.2059 45.0651 9.5493 46.107C4.5698 54.0199 3.58596 61.1608 6.78928 66.1599C9.39475 70.2513 14.4519 72.3939 21.2641 72.3939C22.8971 72.3849 24.5278 72.2756 26.1471 72.0652C26.4751 72.0268 26.8226 71.9687 27.1506 71.9303C27.2863 72.2394 27.4212 72.5477 27.5758 72.8568C31.5707 81.3291 37.0327 86.0003 42.9764 86.0003C48.9209 86.0003 54.4025 81.3291 58.3779 72.8568C58.5128 72.5477 58.6674 72.2394 58.8023 71.9303C59.1498 71.9883 59.4778 72.0268 59.8065 72.0652C61.4244 72.2846 63.0558 72.3939 64.6887 72.3939C71.5017 72.3939 76.5581 70.2513 79.1636 66.1599C82.3677 61.142 81.3831 54.0199 76.4043 46.107C75.7477 45.0651 75.0338 44.0232 74.2618 43.0001C75.0338 41.9575 75.7477 40.9352 76.4043 39.8926C81.4411 31.9608 82.4257 24.8387 79.2028 19.8404ZM31.0882 14.784C34.3496 7.83603 38.692 3.85996 42.996 3.85996C47.3001 3.85996 51.6425 7.83603 54.9039 14.784C54.9061 14.7983 54.9129 14.8119 54.9235 14.8224C50.8238 15.8085 46.8251 17.1716 42.9764 18.8942C39.1323 17.1633 35.1321 15.7995 31.0302 14.8224C31.0686 14.8224 31.0686 14.8028 31.0882 14.784ZM60.3855 43.0001C60.3862 46.0881 60.2189 49.1746 59.8834 52.2445C57.4777 54.1858 54.9649 55.9898 52.3565 57.6484C49.3461 59.5814 46.2129 61.3161 42.9764 62.8405C39.7467 61.3041 36.6135 59.5701 33.5972 57.6484C30.9917 55.9853 28.479 54.1812 26.0702 52.2445C25.4008 46.0994 25.4008 39.9001 26.0702 33.7551C31.2722 29.5747 36.9468 26.0186 42.9764 23.1598C46.2069 24.6955 49.3394 26.4294 52.3565 28.3511C54.9619 30.0142 57.4747 31.8183 59.8834 33.7551C60.2189 36.8257 60.3862 39.9114 60.3855 43.0001ZM64.0713 37.3836C65.9613 39.144 67.7405 41.0197 69.3984 43.0001C67.7405 44.9799 65.9613 46.8556 64.0713 48.6159C64.1874 46.7636 64.2455 44.8917 64.2455 43.0001C64.2455 41.1086 64.1874 39.2367 64.0713 37.3836ZM59.0918 57.7261C58.4826 61.0673 57.5983 64.3528 56.4479 67.5494C53.4504 66.8724 50.5086 65.9692 47.6476 64.8474C49.9244 63.651 52.2019 62.3384 54.4598 60.9105C56.043 59.8875 57.587 58.826 59.0918 57.7261ZM38.3445 64.8474C35.4887 65.9835 32.5455 66.8874 29.5442 67.5494C28.3938 64.3528 27.5094 61.0673 26.9003 57.7261C28.3862 58.826 29.9302 59.8875 31.5323 60.8909C33.7902 62.3384 36.0677 63.651 38.3445 64.8474ZM21.9208 48.6159C20.0308 46.8556 18.2523 44.9799 16.5937 43.0001C18.2523 41.0197 20.0308 39.144 21.9208 37.3836C21.8047 39.2367 21.7466 41.1086 21.7466 43.0001C21.7466 44.8917 21.8047 46.7636 21.9208 48.6159ZM26.9003 28.2742C27.5094 24.9322 28.3938 21.6467 29.5442 18.4509C32.5417 19.1272 35.4842 20.0303 38.3445 21.1529C36.0677 22.3493 33.7902 23.6619 31.5323 25.0898C29.9491 26.1128 28.4051 27.1743 26.9003 28.2742ZM54.441 25.0898C52.2019 23.6619 49.9244 22.3297 47.628 21.1529C50.4838 20.0168 53.427 19.1129 56.429 18.4509C57.5787 21.6467 58.463 24.9322 59.0729 28.2742C57.587 27.1743 56.043 26.1128 54.441 25.0898ZM12.8114 37.8276C8.71926 31.3426 7.71582 25.5338 10.0318 21.9053C11.8849 19.0103 15.8994 17.4467 21.3222 17.4467C22.7742 17.4528 24.2247 17.55 25.6647 17.7362H25.7031C24.1418 22.2762 23.0554 26.9655 22.4613 31.7286C19.4872 34.2097 16.7181 36.9275 14.1813 39.8541C13.6988 39.1982 13.2359 38.5227 12.8114 37.8276ZM25.6458 68.2445C24.2059 68.4314 22.7554 68.5279 21.3033 68.534C15.8798 68.534 11.8653 66.99 10.0129 64.0754C7.69697 60.4469 8.70041 54.6381 12.7918 48.153C13.2163 47.4776 13.6799 46.7825 14.1624 46.107C16.6985 49.0344 19.4676 51.7514 22.4417 54.2325C23.0366 58.9964 24.1229 63.6856 25.6843 68.2249C25.6843 68.2445 25.6647 68.2445 25.6458 68.2445ZM54.9039 71.2163C51.6425 78.1643 47.3001 82.1403 42.996 82.1403C38.692 82.1403 34.3496 78.1643 31.0882 71.2163C31.0859 71.202 31.0792 71.1884 31.0686 71.1779C35.1683 70.1918 39.167 68.8287 43.0156 67.1053C46.8598 68.837 50.86 70.2008 54.9619 71.1779C54.9235 71.1779 54.9235 71.1967 54.9039 71.2163ZM73.1807 48.1727C77.2728 54.6569 78.2763 60.4665 75.9603 64.095C73.6443 67.7228 67.9509 69.2479 60.3463 68.2445H60.3078C61.8692 63.7045 62.9563 59.0152 63.5504 54.2521C66.5245 51.771 69.2936 49.0532 71.8297 46.1266C72.2933 46.8021 72.7562 47.4776 73.1807 48.1727ZM63.5308 31.7482C62.9367 26.9843 61.8503 22.2951 60.289 17.7558H60.3274C67.9313 16.7712 73.6247 18.2768 75.9407 21.9053C78.2567 25.5338 77.2532 31.3426 73.1618 37.8276C72.7374 38.5031 72.2737 39.1982 71.7912 39.8737C69.2664 36.9418 66.5034 34.224 63.5308 31.7482Z" fill="url(#paint0_linear_144_894)" />
		<path d="M42.9965 35.3571C38.7755 35.3571 35.3535 38.7791 35.3535 43.0001C35.3535 47.2212 38.7755 50.6424 42.9965 50.6424C47.2176 50.6424 50.6396 47.2212 50.6396 43.0001C50.6366 38.7798 47.2161 35.3601 42.9965 35.3571ZM42.9965 46.7825C40.9075 46.7825 39.2135 45.0892 39.2135 43.0001C39.2135 40.9111 40.9075 39.2171 42.9965 39.2171C45.0856 39.2171 46.7796 40.9111 46.7796 43.0001C46.7758 45.0877 45.0841 46.7794 42.9965 46.7825Z" fill="url(#paint1_linear_144_894)" />
	</g>
	<defs>
		<linearGradient id="paint0_linear_144_894" x1="43.0019" y1="-3.31957" x2="43.0019" y2="90.2477" gradientUnits="userSpaceOnUse">
			<stop stop-color="#00EFD1" />
			<stop offset="1" stop-color="#00ACEA" />
		</linearGradient>
		<linearGradient id="paint1_linear_144_894" x1="42.9966" y1="-3.31957" x2="42.9966" y2="90.2477" gradientUnits="userSpaceOnUse">
			<stop stop-color="#00EFD1" />
			<stop offset="1" stop-color="#00ACEA" />
		</linearGradient>
		<clipPath id="clip0_144_894">
			<rect width="86" height="86" fill="white" />
		</clipPath>
	</defs>
</svg>
