<svg width="86" height="86" viewBox="0 0 86 86" fill="none" xmlns="http://www.w3.org/2000/svg">
	<path d="M25.7975 26.5411H21.0483L33.9959 63.1409L41.2444 42.4273L35.6246 26.5411H30.6138V23.0536H52.8033V26.5411H47.6071L60.5545 63.1409L65.2086 49.8408C71.3139 32.8008 60.2047 27.4928 60.2047 23.6899C60.2047 19.887 63.2876 16.8043 67.0903 16.8043C67.296 16.8043 67.4958 16.8154 67.6916 16.8337C61.2482 10.7511 52.5599 7.021 42.9997 7.021C30.5077 7.021 19.5042 13.3885 13.0537 23.0536H25.7971V26.5411H25.7975Z" fill="#00769D" />
	<path d="M7.02148 43C7.02148 56.7746 14.7637 68.7392 26.1326 74.7851L9.89594 28.8878C8.04636 33.2209 7.02148 37.9907 7.02148 43Z" fill="#00769D" />
	<path d="M74.3122 25.2707C74.8269 28.3009 74.6711 31.7068 73.8813 35.1258H74.0244L73.4804 36.6803C73.158 37.8028 72.7521 38.951 72.2911 40.0792L59.9111 74.7619C71.2562 68.7087 78.9786 56.7569 78.9786 42.9998C78.9786 36.5533 77.2816 30.5038 74.3122 25.2707Z" fill="#00769D" />
	<path d="M31.9033 77.2322C35.3987 78.3644 39.127 78.9786 42.9996 78.9786C46.6934 78.9786 50.2568 78.4211 53.6113 77.387L43.087 47.6374L31.9033 77.2322Z" fill="#00769D" />
	<path d="M73.4055 12.5943C65.2839 4.47276 54.4855 0 42.9998 0C31.5141 0 20.7159 4.47276 12.5943 12.5943C4.47276 20.7159 0 31.5141 0 43C0 54.4857 4.47276 65.2839 12.5943 73.4055C20.7159 81.527 31.5143 85.9998 43 85.9998C54.4857 85.9998 65.2839 81.527 73.4057 73.4055C81.5272 65.2839 86 54.4855 86 43C85.9998 31.5141 81.527 20.7159 73.4055 12.5943ZM42.9998 82.9665C20.9622 82.9665 3.03332 65.0376 3.03332 43C3.03332 20.9624 20.9622 3.03332 42.9998 3.03332C65.0374 3.03332 82.9663 20.9624 82.9663 43C82.9663 65.0376 65.0376 82.9665 42.9998 82.9665Z" fill="#00769D" />
</svg>
