<svg width="576" height="238" viewBox="0 0 576 238" fill="none" xmlns="http://www.w3.org/2000/svg">
	<rect x="7" y="51.4756" width="275.078" height="75.0098" rx="37.5049" transform="rotate(-10.7854 7 51.4756)" fill="#0F2C4A" />
	<path d="M57.8867 70.3645L58.3606 72.8525L53.4114 73.7953L56.4794 89.9002L53.4296 90.4811L50.3617 74.3763L45.3858 75.3242L44.9118 72.8362L57.8867 70.3645ZM65.1666 75.1877C65.4698 74.3537 65.9479 73.662 66.601 73.1125C67.2685 72.5417 68.1106 72.1595 69.1272 71.9659L69.7285 75.1227L68.9527 75.2704C67.7578 75.4981 66.906 75.9745 66.3973 76.6998C65.9064 77.4217 65.8036 78.5317 66.089 80.0299L67.5669 87.788L64.5172 88.369L61.7092 73.6285L64.7589 73.0475L65.1666 75.1877ZM85.3258 69.1296L88.1338 83.8701L85.084 84.4511L84.7528 82.7122C84.3867 83.4103 83.8453 84.0125 83.1286 84.5187C82.4262 85.0036 81.6381 85.3293 80.7642 85.4958C79.6049 85.7166 78.5157 85.6746 77.4966 85.3697C76.4952 85.0615 75.637 84.4857 74.9219 83.6424C74.2247 82.7956 73.7486 81.7035 73.4938 80.3659L71.8426 71.6981L74.8656 71.1222L76.4302 79.3352C76.6816 80.655 77.2052 81.6087 78.001 82.1964C78.7934 82.7662 79.7603 82.9425 80.9017 82.725C82.0431 82.5076 82.8775 81.9882 83.4049 81.167C83.9468 80.3245 84.092 79.2433 83.8406 77.9235L82.276 69.7106L85.3258 69.1296ZM97.554 82.3251C96.3948 82.546 95.3124 82.5396 94.3068 82.3061C93.3157 82.0513 92.4846 81.6182 91.8137 81.0067C91.1394 80.3774 90.6994 79.6203 90.4939 78.7354L93.6506 78.134C93.8231 78.748 94.2176 79.2181 94.8341 79.5442C95.4652 79.8491 96.1909 79.9234 97.0113 79.7671C97.8674 79.604 98.4967 79.3178 98.8992 78.9084C99.3162 78.4779 99.4754 78.004 99.3769 77.4867C99.2716 76.9339 98.9259 76.5746 98.3399 76.409C97.7718 76.24 96.8864 76.1037 95.6838 76.0001C94.5203 75.9076 93.5636 75.7849 92.8136 75.632C92.0637 75.4792 91.3741 75.1577 90.7448 74.6677C90.1333 74.1743 89.7358 73.446 89.5523 72.483C89.4028 71.6982 89.4988 70.9407 89.8402 70.2103C90.1782 69.462 90.7396 68.8191 91.5243 68.2815C92.3268 67.7405 93.2899 67.363 94.4135 67.149C96.09 66.8296 97.5181 67.0011 98.6977 67.6635C99.8918 68.3047 100.664 69.3497 101.014 70.7986L97.964 71.3796C97.7848 70.7299 97.4171 70.2547 96.8608 69.9541C96.3045 69.6534 95.6162 69.5813 94.7957 69.7376C93.9932 69.8904 93.4068 70.1592 93.0365 70.544C92.6662 70.9287 92.5286 71.3708 92.6237 71.8701C92.6985 72.2625 92.904 72.5653 93.2403 72.7784C93.5767 72.9916 93.9652 73.1394 94.406 73.2217C94.8434 73.2863 95.4854 73.358 96.3322 73.437C97.4566 73.5185 98.3866 73.6463 99.1221 73.8204C99.872 73.9733 100.551 74.2875 101.159 74.7631C101.767 75.2386 102.17 75.9474 102.368 76.8892C102.528 77.7275 102.439 78.5207 102.101 79.2689C101.763 80.0171 101.201 80.66 100.417 81.1977C99.6496 81.7319 98.6955 82.1077 97.554 82.3251ZM107.672 67.451L109.227 75.6104C109.332 76.1633 109.533 76.5408 109.83 76.7429C110.142 76.9238 110.61 76.9548 111.234 76.8359L113.107 76.4792L113.591 79.0206L111.183 79.4793C109.81 79.7409 108.697 79.6203 107.843 79.1176C106.99 78.6148 106.425 77.6411 106.15 76.1965L104.596 68.037L102.857 68.3683L102.383 65.8803L104.122 65.5491L103.424 61.884L106.5 61.298L107.198 64.963L110.783 64.2801L111.257 66.7681L107.672 67.451ZM128.439 68.1802C128.544 68.7331 128.604 69.2392 128.617 69.6987L117.355 71.8442C117.668 73.0043 118.285 73.8663 119.206 74.4302C120.126 74.9941 121.157 75.1674 122.299 74.9499C123.94 74.6374 124.968 73.7299 125.384 72.2275L128.675 71.6007C128.487 73.0411 127.888 74.3103 126.877 75.4085C125.881 76.4854 124.518 77.1886 122.788 77.5181C121.379 77.7865 120.053 77.7157 118.811 77.3055C117.583 76.8741 116.539 76.1488 115.68 75.1297C114.835 74.0893 114.268 72.8112 113.979 71.2952C113.69 69.7792 113.74 68.3928 114.129 67.1358C114.532 65.8577 115.228 64.8011 116.214 63.9663C117.219 63.128 118.444 62.5713 119.888 62.2961C121.279 62.0311 122.577 62.0982 123.78 62.4973C124.984 62.8964 125.994 63.5911 126.811 64.5814C127.625 65.5538 128.167 66.7534 128.439 68.1802ZM125.072 67.8236C124.84 66.7034 124.267 65.8791 123.354 65.3509C122.44 64.8227 121.403 64.669 120.244 64.8898C119.192 65.0903 118.355 65.6007 117.736 66.4211C117.112 67.2237 116.838 68.2093 116.913 69.3779L125.072 67.8236ZM130.48 68.0964C130.198 66.6161 130.251 65.2475 130.64 63.9905C131.047 62.7302 131.717 61.6877 132.65 60.863C133.598 60.0171 134.723 59.4702 136.025 59.2221C136.988 59.0387 137.974 59.0726 138.983 59.324C140.006 59.5541 140.861 59.9643 141.546 60.5546L140.191 53.4385L143.267 52.8524L147.038 72.6491L143.962 73.2351L143.539 71.0147C143.175 71.8232 142.592 72.5443 141.789 73.1779C141.003 73.808 140.039 74.2318 138.898 74.4493C137.614 74.6939 136.376 74.5971 135.183 74.1589C134.005 73.6995 132.994 72.9496 132.149 71.9092C131.318 70.8476 130.762 69.5767 130.48 68.0964ZM142.555 65.8515C142.362 64.8349 141.979 63.9929 141.409 63.3253C140.856 62.6544 140.203 62.1873 139.451 61.9241C138.698 61.6608 137.93 61.6039 137.145 61.7534C136.36 61.9029 135.666 62.2384 135.063 62.7598C134.457 63.2635 134.011 63.9306 133.726 64.7612C133.455 65.5706 133.416 66.4835 133.61 67.5001C133.803 68.5167 134.178 69.3694 134.735 70.0582C135.309 70.7435 135.974 71.2267 136.73 71.5078C137.5 71.7677 138.269 71.8246 139.036 71.6785C139.82 71.529 140.514 71.1935 141.117 70.6721C141.72 70.1506 142.155 69.4763 142.423 68.649C142.705 67.8006 142.749 66.8681 142.555 65.8515ZM168.508 55.0303C168.688 55.9756 168.635 56.9098 168.349 57.833C168.063 58.7561 167.48 59.5787 166.601 60.3006C165.719 61.0046 164.511 61.5028 162.977 61.795L159.606 62.4371L161.043 69.9812L157.993 70.5622L154.452 51.9694L160.872 50.7463C162.299 50.4745 163.55 50.4948 164.626 50.8073C165.717 51.0986 166.583 51.6175 167.224 52.364C167.883 53.1071 168.311 53.9959 168.508 55.0303ZM162.503 59.307C163.662 59.0862 164.478 58.6628 164.95 58.0368C165.419 57.3931 165.562 56.5897 165.378 55.6266C164.991 53.5934 163.647 52.796 161.346 53.2342L157.975 53.8763L159.132 59.9491L162.503 59.307ZM171.47 60.2879C171.188 58.8076 171.242 57.439 171.631 56.182C172.038 54.9217 172.708 53.8792 173.641 53.0545C174.589 52.2086 175.705 51.6633 176.989 51.4187C178.148 51.1979 179.2 51.2378 180.144 51.5384C181.103 51.8178 181.906 52.2471 182.552 52.8263L182.144 50.6861L185.221 50.1L188.029 64.8406L184.952 65.4266L184.534 63.2329C184.15 64.027 183.556 64.7408 182.752 65.3744C181.949 66.008 180.976 66.4335 179.835 66.651C178.569 66.8922 177.348 66.792 176.174 66.3504C174.996 65.8909 173.984 65.141 173.139 64.1007C172.309 63.0391 171.752 61.7682 171.47 60.2879ZM183.546 58.043C183.352 57.0264 182.97 56.1843 182.399 55.5168C181.846 54.8459 181.194 54.3788 180.441 54.1155C179.689 53.8523 178.92 53.7954 178.135 53.9449C177.351 54.0944 176.657 54.4298 176.054 54.9513C175.447 55.455 175.002 56.1221 174.716 56.9527C174.445 57.762 174.407 58.675 174.6 59.6916C174.794 60.7082 175.169 61.5609 175.725 62.2496C176.299 62.935 176.964 63.4182 177.72 63.6993C178.491 63.9592 179.259 64.0161 180.026 63.87C180.811 63.7205 181.505 63.385 182.108 62.8635C182.711 62.3421 183.146 61.6677 183.413 60.8405C183.695 59.9921 183.739 59.0596 183.546 58.043ZM192.684 50.8962C192.987 50.0622 193.465 49.3704 194.118 48.8209C194.786 48.2502 195.628 47.868 196.645 47.6744L197.246 50.8311L196.47 50.9789C195.275 51.2066 194.423 51.683 193.915 52.4083C193.424 53.1302 193.321 54.2402 193.606 55.7384L195.084 63.4965L192.035 64.0775L189.227 49.337L192.276 48.756L192.684 50.8962ZM203.526 49.1913L205.08 57.3507C205.186 57.9036 205.387 58.2811 205.684 58.4832C205.996 58.6641 206.464 58.6951 207.088 58.5762L208.961 58.2195L209.445 60.7609L207.037 61.2196C205.664 61.4812 204.55 61.3606 203.697 60.8579C202.843 60.3551 202.279 59.3814 202.004 57.9368L200.449 49.7773L198.71 50.1086L198.237 47.6206L199.975 47.2894L199.277 43.6243L202.354 43.0383L203.052 46.7033L206.637 46.0204L207.111 48.5084L203.526 49.1913ZM216.839 43.8275C217.998 43.6066 219.078 43.6503 220.08 43.9586C221.099 44.2635 221.957 44.8393 222.654 45.686C223.352 46.5327 223.828 47.6249 224.082 48.9625L225.739 57.657L222.716 58.2329L221.146 49.9932C220.895 48.6734 220.373 47.7286 219.58 47.1587C218.785 46.571 217.816 46.3859 216.675 46.6033C215.533 46.8208 214.692 47.3507 214.15 48.1932C213.622 49.0145 213.484 50.085 213.736 51.4048L215.305 59.6445L212.256 60.2255L209.448 45.485L212.497 44.904L212.818 46.5894C213.202 45.8879 213.745 45.2946 214.448 44.8097C215.168 44.3213 215.965 43.9939 216.839 43.8275ZM241.666 46.6109C241.771 47.1638 241.831 47.67 241.844 48.1295L230.582 50.275C230.895 51.4351 231.512 52.2971 232.433 52.861C233.353 53.4249 234.384 53.5981 235.526 53.3807C237.167 53.0681 238.195 52.1606 238.611 50.6583L241.902 50.0314C241.714 51.4718 241.115 52.7411 240.104 53.8392C239.108 54.9161 237.745 55.6194 236.015 55.9489C234.606 56.2173 233.28 56.1464 232.038 55.7362C230.81 55.3048 229.766 54.5796 228.907 53.5604C228.061 52.5201 227.495 51.2419 227.206 49.726C226.917 48.21 226.967 46.8235 227.356 45.5666C227.759 44.2884 228.455 43.2319 229.441 42.397C230.446 41.5588 231.671 41.0021 233.115 40.7269C234.506 40.4619 235.804 40.5289 237.007 40.9281C238.211 41.3272 239.221 42.0219 240.038 43.0121C240.851 43.9846 241.394 45.1842 241.666 46.6109ZM238.299 46.2543C238.067 45.1341 237.494 44.3099 236.58 43.7817C235.667 43.2534 234.63 43.0997 233.471 43.3206C232.419 43.521 231.582 44.0314 230.962 44.8519C230.339 45.6544 230.065 46.64 230.14 47.8087L238.299 46.2543ZM246.79 40.5893C247.093 39.7553 247.571 39.0636 248.224 38.5141C248.891 37.9434 249.734 37.5612 250.75 37.3675L251.351 40.5243L250.576 40.6721C249.381 40.8997 248.529 41.3762 248.02 42.1015C247.529 42.8234 247.427 43.9334 247.712 45.4315L249.19 53.1897L246.14 53.7706L243.332 39.0301L246.382 38.4492L246.79 40.5893Z" fill="white" />
	<rect x="8.51221" y="128" width="306.078" height="75.0098" rx="37.5049" transform="rotate(6.51607 8.51221 128)" fill="#0F2C4A" />
	<path d="M37.2147 169.023C37.4248 167.183 38.0373 165.581 39.0519 164.216C40.0847 162.854 41.3779 161.851 42.9318 161.206C44.5057 160.545 46.1675 160.315 47.9172 160.514C49.9194 160.743 51.6396 161.442 53.0775 162.611C54.5356 163.765 55.5134 165.283 56.0108 167.168L52.304 166.744C51.9303 165.697 51.3383 164.88 50.5281 164.294C49.7179 163.708 48.7446 163.35 47.6081 163.22C46.3635 163.078 45.2222 163.231 44.1843 163.679C43.1463 164.127 42.288 164.842 41.6093 165.824C40.9487 166.809 40.5391 167.995 40.3804 169.384C40.2218 170.773 40.3533 172.022 40.7749 173.13C41.2146 174.24 41.8885 175.139 42.7966 175.828C43.7068 176.498 44.7843 176.904 46.0289 177.047C47.1653 177.176 48.1943 177.047 49.1157 176.659C50.0372 176.271 50.7981 175.609 51.3985 174.672L55.1053 175.095C54.1958 176.819 52.9007 178.078 51.2201 178.873C49.5576 179.67 47.7252 179.954 45.7229 179.725C43.9552 179.523 42.3871 178.933 41.0187 177.954C39.6524 176.958 38.6198 175.679 37.9208 174.119C37.2399 172.562 37.0045 170.863 37.2147 169.023ZM73.296 167.607L71.5932 182.516L68.5086 182.163L68.7095 180.405C68.1524 180.962 67.4564 181.376 66.6215 181.646C65.8068 181.9 64.9574 181.977 64.0735 181.876C62.9011 181.742 61.8736 181.378 60.9913 180.784C60.1269 180.192 59.4788 179.387 59.0469 178.369C58.6329 177.353 58.5032 176.169 58.6578 174.816L59.6591 166.049L62.7166 166.399L61.7678 174.705C61.6153 176.04 61.8316 177.106 62.4166 177.904C63.0037 178.684 63.8744 179.14 65.0289 179.272C66.1833 179.403 67.1344 179.156 67.8822 178.528C68.6501 177.885 69.1102 176.896 69.2627 175.561L70.2115 167.255L73.296 167.607ZM81.0467 183.842C79.8742 183.708 78.8426 183.38 77.952 182.858C77.0815 182.32 76.4169 181.66 75.9582 180.876C75.5015 180.075 75.3066 179.221 75.3736 178.315L78.5663 178.68C78.5483 179.317 78.7852 179.883 79.2769 180.378C79.7887 180.857 80.4595 181.144 81.2892 181.238C82.1551 181.337 82.841 181.251 83.3471 180.98C83.8733 180.693 84.1663 180.288 84.226 179.765C84.2899 179.206 84.0667 178.76 83.5565 178.427C83.0642 178.097 82.2595 177.704 81.1421 177.247C80.0587 176.813 79.1818 176.411 78.5113 176.042C77.8408 175.673 77.2779 175.161 76.8228 174.506C76.3857 173.853 76.2228 173.04 76.3341 172.066C76.4247 171.272 76.7416 170.577 77.2848 169.981C77.83 169.367 78.5572 168.921 79.4663 168.641C80.3935 168.363 81.4252 168.289 82.5616 168.419C84.2572 168.612 85.5697 169.201 86.499 170.184C87.4484 171.151 87.8747 172.379 87.7779 173.866L84.6933 173.514C84.7154 172.84 84.5056 172.277 84.0639 171.825C83.6222 171.372 82.9865 171.099 82.1567 171.004C81.345 170.911 80.7052 170.993 80.2372 171.25C79.7693 171.508 79.5065 171.889 79.4488 172.394C79.4034 172.791 79.5096 173.141 79.7673 173.444C80.0251 173.748 80.3521 174.005 80.7484 174.214C81.1468 174.406 81.7385 174.666 82.5234 174.993C83.5727 175.405 84.4226 175.804 85.0731 176.189C85.7436 176.557 86.2984 177.059 86.7376 177.694C87.1767 178.329 87.3507 179.126 87.2595 180.084C87.1627 180.932 86.8417 181.662 86.2964 182.276C85.7512 182.89 85.024 183.337 84.1149 183.617C83.2239 183.899 82.2011 183.974 81.0467 183.842ZM95.1306 172.65L94.188 180.903C94.1241 181.462 94.2041 181.882 94.4277 182.163C94.6715 182.429 95.1091 182.598 95.7404 182.67L97.6345 182.886L97.3409 185.457L94.9057 185.178C93.5167 185.02 92.4896 184.573 91.8242 183.84C91.1588 183.106 90.9095 182.008 91.0764 180.547L92.019 172.295L90.2603 172.094L90.5477 169.577L92.3064 169.778L92.7298 166.071L95.8414 166.427L95.418 170.134L99.0437 170.548L98.7563 173.064L95.1306 172.65ZM106.623 186.763C105.216 186.603 103.98 186.142 102.916 185.381C101.854 184.601 101.064 183.598 100.546 182.369C100.031 181.122 99.8605 179.732 100.036 178.199C100.209 176.684 100.696 175.378 101.497 174.282C102.299 173.186 103.313 172.388 104.539 171.888C105.766 171.389 107.091 171.22 108.516 171.383C109.942 171.546 111.195 172.009 112.278 172.772C113.36 173.535 114.168 174.541 114.701 175.79C115.235 177.039 115.415 178.421 115.242 179.936C115.069 181.451 114.573 182.756 113.753 183.85C112.934 184.944 111.892 185.748 110.627 186.261C109.383 186.759 108.048 186.926 106.623 186.763ZM106.929 184.085C107.722 184.175 108.484 184.07 109.212 183.77C109.959 183.471 110.592 182.968 111.112 182.26C111.631 181.552 111.953 180.657 112.076 179.574C112.2 178.492 112.096 177.557 111.766 176.77C111.438 175.965 110.952 175.334 110.31 174.877C109.668 174.42 108.95 174.146 108.156 174.056C107.363 173.965 106.602 174.07 105.873 174.37C105.162 174.673 104.565 175.18 104.082 175.893C103.6 176.587 103.298 177.475 103.174 178.558C102.991 180.163 103.255 181.454 103.965 182.431C104.696 183.391 105.684 183.943 106.929 184.085ZM137.216 174.661C138.389 174.795 139.407 175.158 140.271 175.75C141.154 176.344 141.802 177.149 142.216 178.165C142.648 179.183 142.786 180.368 142.632 181.721L141.628 190.515L138.57 190.166L139.522 181.832C139.674 180.497 139.457 179.44 138.87 178.66C138.285 177.862 137.415 177.398 136.261 177.266C135.106 177.134 134.145 177.39 133.377 178.033C132.63 178.66 132.179 179.641 132.027 180.976L131.075 189.31L128.018 188.96L128.97 180.627C129.122 179.292 128.905 178.235 128.318 177.455C127.733 176.657 126.863 176.192 125.708 176.06C124.554 175.929 123.593 176.184 122.825 176.828C122.077 177.455 121.627 178.436 121.475 179.771L120.523 188.104L117.438 187.752L119.141 172.843L122.226 173.196L122.031 174.9C122.606 174.345 123.301 173.94 124.116 173.686C124.931 173.432 125.78 173.355 126.664 173.456C127.854 173.592 128.89 173.966 129.77 174.578C130.65 175.19 131.288 176.003 131.684 177.017C132.238 176.167 133.023 175.535 134.039 175.121C135.057 174.689 136.116 174.536 137.216 174.661ZM158.756 192.663C157.493 192.519 156.381 192.173 155.421 191.624C154.462 191.058 153.74 190.336 153.256 189.458C152.771 188.581 152.591 187.601 152.715 186.518L156.016 186.896C155.995 187.715 156.234 188.419 156.734 189.006C157.251 189.595 158.024 189.948 159.052 190.066C160.117 190.187 160.975 190.029 161.628 189.592C162.283 189.137 162.657 188.504 162.75 187.692C162.822 187.061 162.691 186.525 162.358 186.085C162.042 185.647 161.617 185.288 161.083 185.007C160.566 184.729 159.836 184.408 158.89 184.044C157.701 183.579 156.737 183.14 155.998 182.727C155.28 182.298 154.69 181.701 154.229 180.935C153.769 180.17 153.605 179.201 153.739 178.029C153.863 176.946 154.241 176.03 154.875 175.28C155.509 174.53 156.338 173.995 157.361 173.673C158.385 173.351 159.537 173.264 160.818 173.41C162.64 173.618 164.075 174.248 165.125 175.3C166.194 176.336 166.701 177.654 166.646 179.256L163.237 178.867C163.261 178.175 163.003 177.552 162.464 176.997C161.924 176.442 161.167 176.109 160.193 175.997C159.309 175.896 158.562 176.039 157.951 176.427C157.341 176.814 156.987 177.431 156.89 178.279C156.824 178.856 156.941 179.354 157.24 179.772C157.56 180.174 157.978 180.514 158.494 180.792C159.011 181.07 159.724 181.389 160.633 181.749C161.838 182.234 162.809 182.692 163.546 183.123C164.3 183.557 164.907 184.165 165.366 184.948C165.844 185.716 166.016 186.695 165.88 187.885C165.771 188.841 165.406 189.713 164.786 190.501C164.184 191.291 163.357 191.891 162.306 192.301C161.274 192.695 160.09 192.816 158.756 192.663ZM175.35 194.613C173.943 194.453 172.707 193.992 171.643 193.231C170.58 192.451 169.791 191.448 169.273 190.219C168.758 188.972 168.587 187.582 168.763 186.049C168.936 184.534 169.423 183.228 170.224 182.132C171.026 181.036 172.039 180.238 173.266 179.738C174.493 179.239 175.818 179.07 177.243 179.233C178.668 179.396 179.922 179.859 181.004 180.622C182.087 181.385 182.895 182.391 183.428 183.64C183.962 184.889 184.142 186.271 183.969 187.786C183.796 189.301 183.3 190.606 182.48 191.7C181.661 192.794 180.619 193.598 179.354 194.111C178.109 194.609 176.775 194.776 175.35 194.613ZM175.656 191.935C176.449 192.025 177.21 191.92 177.939 191.62C178.686 191.321 179.319 190.818 179.839 190.11C180.358 189.402 180.68 188.507 180.803 187.424C180.927 186.342 180.823 185.407 180.493 184.62C180.165 183.815 179.679 183.184 179.037 182.727C178.395 182.27 177.677 181.996 176.883 181.906C176.09 181.815 175.328 181.92 174.6 182.22C173.889 182.523 173.292 183.03 172.809 183.743C172.327 184.437 172.025 185.325 171.901 186.408C171.718 188.013 171.982 189.304 172.692 190.281C173.423 191.241 174.411 191.793 175.656 191.935ZM191.537 175.932L189.25 195.954L186.165 195.602L188.452 175.58L191.537 175.932ZM208.504 183.05L206.801 197.959L203.717 197.607L203.917 195.848C203.36 196.406 202.664 196.82 201.829 197.09C201.015 197.344 200.165 197.42 199.281 197.319C198.109 197.186 197.082 196.821 196.199 196.227C195.335 195.635 194.687 194.83 194.255 193.812C193.841 192.797 193.711 191.612 193.866 190.259L194.867 181.493L197.924 181.842L196.976 190.149C196.823 191.483 197.039 192.55 197.624 193.348C198.212 194.127 199.082 194.583 200.237 194.715C201.391 194.847 202.342 194.599 203.09 193.972C203.858 193.329 204.318 192.34 204.471 191.005L205.419 182.698L208.504 183.05ZM215.885 186.443L214.942 194.695C214.878 195.254 214.958 195.675 215.182 195.956C215.426 196.221 215.863 196.39 216.495 196.462L218.389 196.679L218.095 199.249L215.66 198.971C214.271 198.812 213.244 198.366 212.579 197.632C211.913 196.898 211.664 195.801 211.831 194.34L212.773 186.087L211.015 185.886L211.302 183.37L213.061 183.571L213.484 179.864L216.596 180.219L216.172 183.926L219.798 184.34L219.511 186.857L215.885 186.443ZM224.436 182.869C223.877 182.805 223.429 182.562 223.094 182.14C222.758 181.718 222.622 181.228 222.686 180.668C222.75 180.109 222.993 179.662 223.415 179.326C223.837 178.991 224.328 178.855 224.887 178.919C225.428 178.981 225.867 179.223 226.202 179.645C226.538 180.067 226.674 180.557 226.61 181.117C226.546 181.676 226.303 182.123 225.881 182.459C225.459 182.794 224.977 182.931 224.436 182.869ZM225.726 185.017L224.023 199.926L220.938 199.574L222.641 184.665L225.726 185.017ZM234.511 201.371C233.104 201.21 231.869 200.749 230.804 199.988C229.742 199.209 228.952 198.205 228.435 196.976C227.919 195.73 227.749 194.34 227.924 192.806C228.097 191.291 228.585 189.986 229.386 188.889C230.187 187.793 231.201 186.995 232.428 186.496C233.654 185.996 234.98 185.828 236.405 185.991C237.83 186.153 239.084 186.616 240.166 187.38C241.249 188.143 242.056 189.149 242.59 190.397C243.123 191.646 243.304 193.028 243.131 194.543C242.958 196.059 242.461 197.363 241.642 198.457C240.823 199.552 239.78 200.355 238.516 200.869C237.271 201.366 235.936 201.534 234.511 201.371ZM234.817 198.692C235.611 198.783 236.372 198.678 237.101 198.377C237.848 198.079 238.481 197.576 239 196.867C239.52 196.159 239.841 195.264 239.965 194.182C240.088 193.099 239.985 192.165 239.655 191.378C239.326 190.573 238.841 189.942 238.199 189.485C237.557 189.028 236.839 188.754 236.045 188.663C235.251 188.572 234.49 188.677 233.761 188.978C233.051 189.28 232.454 189.788 231.97 190.5C231.489 191.194 231.187 192.083 231.063 193.165C230.88 194.77 231.143 196.061 231.854 197.038C232.585 197.999 233.573 198.55 234.817 198.692ZM254.579 188.066C255.752 188.2 256.77 188.563 257.635 189.155C258.517 189.75 259.165 190.555 259.579 191.57C259.993 192.586 260.123 193.771 259.968 195.123L258.964 203.917L255.906 203.568L256.858 195.234C257.011 193.899 256.793 192.842 256.206 192.062C255.621 191.265 254.752 190.8 253.597 190.668C252.443 190.536 251.481 190.792 250.714 191.435C249.966 192.062 249.516 193.043 249.363 194.378L248.411 202.712L245.327 202.359L247.03 187.451L250.114 187.803L249.92 189.508C250.495 188.952 251.19 188.547 252.004 188.293C252.837 188.041 253.696 187.965 254.579 188.066ZM268.282 205.228C267.11 205.094 266.078 204.766 265.187 204.244C264.317 203.706 263.652 203.046 263.193 202.262C262.737 201.461 262.542 200.607 262.609 199.701L265.802 200.066C265.784 200.703 266.021 201.269 266.512 201.764C267.024 202.243 267.695 202.53 268.525 202.624C269.39 202.723 270.076 202.637 270.582 202.366C271.109 202.079 271.402 201.674 271.461 201.151C271.525 200.592 271.302 200.146 270.792 199.813C270.3 199.483 269.495 199.09 268.377 198.633C267.294 198.199 266.417 197.797 265.747 197.428C265.076 197.059 264.513 196.547 264.058 195.892C263.621 195.239 263.458 194.426 263.569 193.452C263.66 192.658 263.977 191.963 264.52 191.367C265.065 190.753 265.793 190.307 266.702 190.027C267.629 189.749 268.661 189.675 269.797 189.805C271.493 189.998 272.805 190.587 273.734 191.57C274.684 192.537 275.11 193.765 275.013 195.252L271.929 194.9C271.951 194.226 271.741 193.663 271.299 193.211C270.858 192.758 270.222 192.485 269.392 192.39C268.58 192.297 267.94 192.379 267.473 192.636C267.005 192.894 266.742 193.275 266.684 193.78C266.639 194.177 266.745 194.527 267.003 194.83C267.26 195.134 267.587 195.391 267.984 195.6C268.382 195.792 268.974 196.052 269.759 196.379C270.808 196.791 271.658 197.19 272.308 197.574C272.979 197.943 273.534 198.445 273.973 199.08C274.412 199.715 274.586 200.512 274.495 201.47C274.398 202.318 274.077 203.048 273.532 203.662C272.987 204.276 272.259 204.723 271.35 205.003C270.459 205.285 269.436 205.36 268.282 205.228Z" fill="white" />
	<rect x="297.898" y="14.9827" width="281.078" height="75.0098" rx="37.5049" transform="rotate(8.39379 297.898 14.9827)" fill="#0F2C4A" />
	<path d="M330.53 50.7121L329.719 56.2082L336.185 57.1623L335.816 59.6678L329.35 58.7137L328.503 64.4523L335.777 65.5257L335.407 68.0312L325.062 66.5047L327.829 47.7533L338.174 49.2799L337.805 51.7854L330.53 50.7121ZM346.658 62.0109L350.344 70.2353L346.869 69.7224L344.406 64.2113L340.645 68.8041L337.439 68.331L343.312 61.7375L339.63 53.4862L343.105 53.999L345.568 59.5102L349.329 54.9173L352.535 55.3904L346.658 62.0109ZM357.575 58.3639C358.196 57.7582 358.991 57.2882 359.958 56.9537C360.924 56.6192 361.974 56.5355 363.105 56.7024C364.398 56.8932 365.527 57.3901 366.492 58.1931C367.476 58.9808 368.189 59.9944 368.63 61.234C369.072 62.4736 369.182 63.8388 368.962 65.3296C368.742 66.8204 368.239 68.1134 367.454 69.2087C366.671 70.2861 365.691 71.0775 364.516 71.5831C363.361 72.0733 362.136 72.223 360.843 72.0322C359.712 71.8652 358.739 71.4923 357.925 70.9134C357.114 70.3166 356.48 69.6358 356.024 68.8711L354.665 78.0852L351.593 77.632L354.825 55.7284L357.897 56.1816L357.575 58.3639ZM365.837 64.8684C365.988 63.8447 365.902 62.9328 365.58 62.1328C365.278 61.3174 364.805 60.6695 364.16 60.189C363.536 59.6931 362.828 59.3869 362.038 59.2703C361.266 59.1563 360.5 59.2452 359.741 59.537C359.001 59.8314 358.359 60.324 357.817 61.0148C357.292 61.7082 356.955 62.5668 356.803 63.5906C356.652 64.6144 356.726 65.5429 357.026 66.3762C357.345 67.1941 357.817 67.8511 358.442 68.3469C359.084 68.8454 359.791 69.1516 360.563 69.2656C361.354 69.3822 362.119 69.2933 362.86 68.9989C363.621 68.6891 364.266 68.1786 364.793 67.4672C365.338 66.7585 365.686 65.8922 365.837 64.8684ZM385.649 67.489C385.566 68.0458 385.456 68.5434 385.318 68.9818L373.976 67.3082C373.891 68.5069 374.19 69.5237 374.875 70.3588C375.559 71.1938 376.476 71.6962 377.625 71.8658C379.278 72.1096 380.547 71.5904 381.434 70.3081L384.748 70.7971C384.097 72.0958 383.114 73.0978 381.799 73.803C380.504 74.4929 378.986 74.7093 377.244 74.4522C375.825 74.2428 374.596 73.7403 373.557 72.9447C372.539 72.1338 371.791 71.1059 371.314 69.861C370.858 68.6007 370.742 67.2073 370.968 65.6806C371.193 64.1539 371.696 62.8608 372.476 61.8014C373.277 60.7267 374.28 59.9572 375.487 59.4929C376.711 59.0312 378.051 58.9077 379.506 59.1224C380.907 59.3291 382.11 59.8186 383.115 60.591C384.121 61.3633 384.847 62.3514 385.293 63.555C385.742 64.7408 385.861 66.0521 385.649 67.489ZM382.586 66.046C382.735 64.9118 382.464 63.9451 381.775 63.146C381.085 62.3469 380.157 61.8612 378.989 61.6889C377.93 61.5325 376.972 61.74 376.117 62.3112C375.265 62.8644 374.682 63.7052 374.368 64.8335L382.586 66.046ZM392.466 63.4848C393.026 62.7967 393.705 62.3004 394.503 61.996C395.321 61.6762 396.241 61.5919 397.265 61.7429L396.796 64.922L396.015 64.8068C394.811 64.6292 393.85 64.7994 393.132 65.3173C392.431 65.8378 391.969 66.8525 391.746 68.3612L390.594 76.1743L387.522 75.7211L389.713 60.8763L392.784 61.3295L392.466 63.4848ZM403.266 65.4363L402.054 73.6535C401.971 74.2103 402.038 74.633 402.252 74.9215C402.487 75.1948 402.919 75.3778 403.547 75.4705L405.433 75.7488L405.056 78.3083L402.631 77.9505C401.248 77.7464 400.236 77.2667 399.595 76.5115C398.954 75.7562 398.741 74.6512 398.955 73.1963L400.168 64.9791L398.417 64.7207L398.786 62.2151L400.538 62.4735L401.082 58.7825L404.18 59.2397L403.636 62.9307L407.246 63.4634L406.876 65.969L403.266 65.4363ZM421.027 80.8576C419.769 80.6721 418.67 80.2896 417.727 79.7101C416.788 79.1127 416.09 78.3674 415.635 77.4743C415.179 76.5813 415.031 75.5959 415.19 74.5183L418.477 75.0033C418.43 75.8221 418.646 76.533 419.126 77.1361C419.624 77.7418 420.384 78.1201 421.408 78.2712C422.468 78.4276 423.331 78.298 423.998 77.8826C424.668 77.4492 425.062 76.8283 425.181 76.0201C425.274 75.3914 425.161 74.8517 424.842 74.4009C424.541 73.9528 424.128 73.5798 423.603 73.2822C423.096 72.9871 422.376 72.6423 421.444 72.2477C420.27 71.7442 419.321 71.2738 418.596 70.8366C417.892 70.384 417.323 69.7677 416.887 68.9877C416.452 68.2077 416.32 67.234 416.492 66.0665C416.651 64.9889 417.06 64.0857 417.718 63.3569C418.376 62.6282 419.222 62.1198 420.255 61.8319C421.289 61.5439 422.443 61.494 423.718 61.6822C425.533 61.9499 426.947 62.6265 427.961 63.7122C428.996 64.7825 429.46 66.1172 429.352 67.7164L425.958 67.2155C426.004 66.525 425.767 65.8935 425.246 65.3211C424.725 64.7487 423.979 64.391 423.01 64.2478C422.129 64.118 421.378 64.2365 420.755 64.6034C420.132 64.9702 419.758 65.5757 419.633 66.4199C419.549 66.9947 419.649 67.4958 419.935 67.9234C420.241 68.3356 420.647 68.6892 421.154 68.9843C421.661 69.2793 422.363 69.6215 423.26 70.0107C424.449 70.5349 425.405 71.0245 426.127 71.4798C426.867 71.9376 427.453 72.5655 427.886 73.3635C428.339 74.1461 428.479 75.1302 428.304 76.3156C428.163 77.2675 427.77 78.1272 427.125 78.8945C426.497 79.6644 425.651 80.237 424.586 80.6121C423.542 80.9719 422.356 81.0537 421.027 80.8576ZM437.548 83.3505C436.147 83.1437 434.927 82.6426 433.888 81.847C432.852 81.0334 432.095 80.0042 431.618 78.7592C431.144 77.4964 431.02 76.1016 431.245 74.5749C431.468 73.0661 431.997 71.7771 432.834 70.7077C433.671 69.6382 434.71 68.874 435.953 68.415C437.195 67.956 438.526 67.8312 439.945 68.0405C441.363 68.2499 442.601 68.7537 443.658 69.552C444.715 70.3502 445.489 71.3821 445.982 72.6477C446.474 73.9132 446.609 75.3003 446.386 76.8091C446.163 78.3178 445.625 79.6055 444.77 80.6723C443.915 81.7391 442.847 82.5083 441.567 82.98C440.306 83.4363 438.967 83.5598 437.548 83.3505ZM437.941 80.6832C438.732 80.7998 439.496 80.7199 440.234 80.4434C440.99 80.1696 441.639 79.6873 442.182 78.9966C442.724 78.3058 443.075 77.4216 443.234 76.3439C443.393 75.2663 443.32 74.3288 443.016 73.5314C442.714 72.7161 442.25 72.0695 441.623 71.5916C440.996 71.1137 440.287 70.8164 439.497 70.6998C438.707 70.5832 437.943 70.6631 437.204 70.9396C436.484 71.2187 435.871 71.7063 435.364 72.4024C434.861 73.0805 434.529 73.9584 434.37 75.036C434.134 76.6346 434.355 77.9335 435.034 78.9329C435.733 79.9169 436.702 80.5004 437.941 80.6832ZM454.338 65.2093L451.396 85.1462L448.325 84.693L451.267 64.7561L454.338 65.2093ZM471.063 72.88L468.873 87.7249L465.801 87.2717L466.06 85.5205C465.485 86.0596 464.776 86.4505 463.932 86.6931C463.11 86.9204 462.258 86.9691 461.378 86.8392C460.211 86.667 459.196 86.2695 458.333 85.6467C457.489 85.0266 456.867 84.2008 456.469 83.1693C456.089 82.1406 455.998 80.9526 456.197 79.6055L457.485 70.8764L460.529 71.3257L459.309 79.5967C459.112 80.9259 459.294 81.9987 459.852 82.8152C460.413 83.6137 461.269 84.0978 462.418 84.2674C463.568 84.437 464.526 84.2206 465.294 83.6182C466.083 83.0005 466.575 82.0271 466.771 80.6979L467.992 72.4269L471.063 72.88ZM478.329 76.5123L477.117 84.7295C477.034 85.2863 477.101 85.709 477.315 85.9975C477.55 86.2708 477.982 86.4538 478.61 86.5465L480.496 86.8248L480.119 89.3843L477.694 89.0265C476.311 88.8224 475.299 88.3428 474.658 87.5875C474.017 86.8322 473.804 85.7272 474.018 84.2723L475.231 76.0551L473.48 75.7967L473.849 73.2912L475.6 73.5496L476.145 69.8586L479.243 70.3157L478.699 74.0067L482.309 74.5394L481.939 77.045L478.329 76.5123ZM486.993 73.221C486.436 73.1388 485.997 72.8813 485.675 72.4485C485.354 72.0156 485.234 71.5208 485.316 70.964C485.398 70.4072 485.656 69.9681 486.089 69.6465C486.521 69.325 487.016 69.2053 487.573 69.2875C488.112 69.367 488.542 69.6232 488.863 70.056C489.185 70.4888 489.305 70.9837 489.223 71.5405C489.14 72.0972 488.883 72.5364 488.45 72.8579C488.017 73.1795 487.531 73.3005 486.993 73.221ZM488.211 75.4103L486.021 90.2552L482.949 89.802L485.14 74.9571L488.211 75.4103ZM496.456 92.0428C495.055 91.8361 493.835 91.3349 492.797 90.5393C491.761 89.7257 491.004 88.6965 490.527 87.4516C490.053 86.1887 489.928 84.7939 490.153 83.2672C490.376 81.7585 490.906 80.4694 491.743 79.4C492.579 78.3306 493.619 77.5664 494.861 77.1073C496.104 76.6483 497.434 76.5235 498.853 76.7329C500.272 76.9422 501.51 77.446 502.567 78.2443C503.623 79.0426 504.398 80.0745 504.89 81.34C505.382 82.6055 505.517 83.9926 505.295 85.5014C505.072 87.0101 504.533 88.2979 503.679 89.3646C502.824 90.4314 501.756 91.2006 500.475 91.6723C499.215 92.1287 497.875 92.2522 496.456 92.0428ZM496.85 89.3756C497.64 89.4922 498.404 89.4122 499.143 89.1358C499.899 88.8619 500.548 88.3797 501.09 87.6889C501.633 86.9981 501.983 86.1139 502.142 85.0363C502.301 83.9586 502.229 83.0211 501.924 82.2237C501.623 81.4084 501.158 80.7618 500.531 80.2839C499.904 79.806 499.196 79.5087 498.406 79.3921C497.615 79.2755 496.851 79.3555 496.113 79.6319C495.393 79.911 494.779 80.3986 494.273 81.0947C493.769 81.7728 493.438 82.6507 493.279 83.7283C493.043 85.3269 493.264 86.6258 493.942 87.6252C494.641 88.6092 495.611 89.1927 496.85 89.3756ZM516.95 79.4031C518.117 79.5754 519.123 79.9716 519.967 80.5917C520.83 81.2145 521.451 82.0402 521.832 83.069C522.212 84.0978 522.303 85.2858 522.104 86.6329L520.812 95.3889L517.768 94.9397L518.992 86.6416C519.188 85.3125 519.006 84.2487 518.445 83.4501C517.886 82.6336 517.032 82.1406 515.882 81.971C514.733 81.8013 513.764 82.0254 512.975 82.6431C512.208 83.2456 511.725 84.2113 511.529 85.5405L510.305 93.8385L507.234 93.3853L509.424 78.5404L512.495 78.9936L512.245 80.691C512.838 80.1545 513.546 79.7726 514.368 79.5453C515.209 79.3207 516.07 79.2733 516.95 79.4031ZM530.082 97.0045C528.915 96.8323 527.895 96.4707 527.022 95.9197C526.169 95.3535 525.527 94.6714 525.094 93.8735C524.664 93.0576 524.497 92.1979 524.593 91.2946L527.773 91.7637C527.734 92.4003 527.952 92.9738 528.427 93.4844C528.923 93.9797 529.584 94.2883 530.41 94.4102C531.272 94.5374 531.961 94.4738 532.475 94.2194C533.011 93.9497 533.317 93.5544 533.394 93.0335C533.476 92.4768 533.267 92.0239 532.768 91.675C532.287 91.3287 531.496 90.9091 530.394 90.4162C529.325 89.9465 528.462 89.5163 527.804 89.1256C527.146 88.7349 526.6 88.2047 526.167 87.5351C525.751 86.8682 525.615 86.0498 525.758 85.0799C525.875 84.2896 526.214 83.6056 526.777 83.0279C527.342 82.4323 528.083 82.0095 529.001 81.7595C529.937 81.5122 530.97 81.472 532.102 81.639C533.79 81.8881 535.083 82.5192 535.979 83.5324C536.897 84.5303 537.282 85.771 537.137 87.2544L534.066 86.8012C534.11 86.1287 533.918 85.5591 533.492 85.0924C533.065 84.6257 532.439 84.3314 531.613 84.2094C530.804 84.0902 530.162 84.1514 529.686 84.3932C529.21 84.6349 528.935 85.0072 528.861 85.5101C528.802 85.9053 528.897 86.2587 529.144 86.5706C529.392 86.8824 529.711 87.1496 530.1 87.3722C530.492 87.5768 531.075 87.8556 531.848 88.2083C532.884 88.6547 533.72 89.0809 534.357 89.487C535.016 89.8777 535.554 90.3976 535.972 91.0465C536.39 91.6955 536.538 92.4973 536.415 93.4518C536.291 94.296 535.946 95.0159 535.381 95.6116C534.816 96.2072 534.074 96.6301 533.156 96.88C532.257 97.1326 531.232 97.1741 530.082 97.0045Z" fill="white" />
	<rect x="312.677" y="159.223" width="256.078" height="75.0098" rx="37.5049" transform="rotate(-3.24894 312.677 159.223)" fill="#0F2C4A" />
	<path d="M359.282 193.92C360.307 194.044 361.199 194.529 361.956 195.377C362.713 196.225 363.124 197.211 363.188 198.335C363.242 199.296 363.038 200.18 362.575 200.989C362.129 201.778 361.447 202.426 360.53 202.932C359.612 203.421 358.528 203.701 357.277 203.772L349.719 204.201L348.646 185.304L355.851 184.895C357.138 184.822 358.256 184.977 359.205 185.359C360.154 185.742 360.886 186.291 361.399 187.008C361.912 187.706 362.194 188.508 362.245 189.415C362.307 190.502 362.068 191.425 361.529 192.183C360.99 192.941 360.241 193.52 359.282 193.92ZM352.196 193.067L356.03 192.85C357.045 192.792 357.821 192.521 358.357 192.036C358.91 191.531 359.162 190.844 359.113 189.974C359.064 189.122 358.737 188.477 358.13 188.039C357.54 187.581 356.738 187.381 355.723 187.439L351.889 187.657L352.196 193.067ZM356.862 201.258C357.913 201.199 358.723 200.898 359.293 200.357C359.862 199.815 360.121 199.091 360.07 198.185C360.017 197.261 359.658 196.544 358.993 196.037C358.328 195.529 357.469 195.305 356.418 195.364L352.34 195.596L352.675 201.496L356.862 201.258ZM380.129 194.591C380.161 195.153 380.154 195.663 380.107 196.12L368.66 196.77C368.819 197.961 369.318 198.897 370.156 199.576C370.995 200.256 371.994 200.563 373.154 200.497C374.822 200.403 375.961 199.638 376.57 198.203L379.915 198.013C379.54 199.416 378.779 200.596 377.633 201.552C376.504 202.489 375.061 203.008 373.303 203.107C371.871 203.189 370.566 202.945 369.388 202.375C368.227 201.786 367.287 200.93 366.569 199.807C365.867 198.665 365.473 197.324 365.386 195.783C365.298 194.242 365.53 192.874 366.08 191.679C366.648 190.465 367.475 189.509 368.563 188.81C369.669 188.111 370.956 187.72 372.424 187.637C373.838 187.556 375.116 187.793 376.256 188.346C377.397 188.9 378.307 189.721 378.987 190.81C379.666 191.881 380.047 193.141 380.129 194.591ZM376.838 193.796C376.755 192.655 376.296 191.763 375.459 191.119C374.622 190.476 373.615 190.188 372.437 190.254C371.367 190.315 370.471 190.712 369.749 191.444C369.026 192.157 368.625 193.099 368.546 194.267L376.838 193.796ZM389.078 202.212C387.899 202.279 386.827 202.131 385.861 201.767C384.912 201.385 384.145 200.846 383.56 200.152C382.974 199.44 382.637 198.631 382.549 197.727L385.758 197.545C385.848 198.176 386.178 198.694 386.746 199.098C387.332 199.483 388.041 199.652 388.875 199.605C389.745 199.555 390.407 199.354 390.859 199.001C391.329 198.629 391.549 198.18 391.519 197.654C391.488 197.093 391.192 196.691 390.633 196.45C390.092 196.208 389.232 195.957 388.053 195.696C386.912 195.452 385.979 195.205 385.256 194.955C384.533 194.705 383.891 194.296 383.332 193.728C382.79 193.158 382.492 192.384 382.436 191.405C382.391 190.608 382.585 189.869 383.019 189.19C383.453 188.493 384.093 187.929 384.942 187.499C385.809 187.068 386.813 186.82 387.955 186.755C389.659 186.658 391.052 187.016 392.134 187.827C393.234 188.619 393.862 189.757 394.019 191.239L390.92 191.415C390.827 190.747 390.525 190.228 390.013 189.857C389.501 189.486 388.828 189.324 387.994 189.371C387.178 189.418 386.562 189.607 386.144 189.94C385.727 190.273 385.532 190.693 385.561 191.201C385.584 191.599 385.748 191.927 386.053 192.182C386.359 192.437 386.725 192.635 387.151 192.774C387.576 192.896 388.203 193.051 389.032 193.24C390.136 193.469 391.041 193.717 391.748 193.986C392.471 194.236 393.103 194.637 393.643 195.188C394.184 195.739 394.49 196.495 394.563 197.454C394.611 198.306 394.419 199.081 393.986 199.778C393.553 200.476 392.912 201.04 392.063 201.47C391.233 201.899 390.238 202.146 389.078 202.212ZM401.059 188.793L401.53 197.086C401.562 197.648 401.712 198.049 401.98 198.288C402.265 198.508 402.725 198.6 403.36 198.564L405.263 198.456L405.41 201.039L402.963 201.178C401.567 201.258 400.479 200.992 399.699 200.382C398.918 199.771 398.487 198.732 398.403 197.264L397.933 188.971L396.165 189.071L396.022 186.543L397.789 186.442L397.578 182.717L400.704 182.54L400.916 186.265L404.559 186.058L404.703 188.587L401.059 188.793ZM421.567 200.313C420.298 200.385 419.143 200.232 418.104 199.855C417.063 199.46 416.229 198.87 415.603 198.088C414.977 197.305 414.633 196.37 414.571 195.282L417.888 195.094C418.007 195.905 418.362 196.558 418.954 197.052C419.564 197.545 420.385 197.762 421.418 197.703C422.488 197.642 423.307 197.341 423.877 196.8C424.445 196.24 424.706 195.552 424.66 194.737C424.624 194.102 424.404 193.596 424.001 193.219C423.616 192.841 423.136 192.559 422.562 192.374C422.005 192.187 421.231 191.994 420.238 191.796C418.986 191.54 417.962 191.271 417.164 190.989C416.383 190.688 415.701 190.199 415.117 189.523C414.533 188.847 414.207 187.92 414.141 186.741C414.079 185.654 414.297 184.687 414.794 183.84C415.292 182.994 416.017 182.325 416.972 181.835C417.926 181.344 419.046 181.062 420.333 180.989C422.164 180.885 423.686 181.262 424.898 182.121C426.128 182.961 426.851 184.174 427.069 185.762L423.643 185.957C423.55 185.271 423.19 184.7 422.564 184.245C421.938 183.789 421.136 183.589 420.157 183.645C419.268 183.695 418.556 183.963 418.02 184.448C417.484 184.933 417.24 185.602 417.288 186.454C417.321 187.034 417.521 187.504 417.887 187.865C418.27 188.207 418.739 188.472 419.296 188.658C419.852 188.845 420.608 189.038 421.565 189.239C422.836 189.512 423.87 189.799 424.669 190.099C425.486 190.398 426.187 190.895 426.772 191.589C427.374 192.264 427.709 193.2 427.777 194.396C427.832 195.357 427.62 196.278 427.143 197.16C426.684 198.041 425.971 198.772 425.004 199.354C424.054 199.917 422.908 200.237 421.567 200.313ZM438.251 199.421C436.837 199.501 435.541 199.256 434.363 198.687C433.184 198.099 432.235 197.243 431.517 196.12C430.798 194.979 430.394 193.638 430.307 192.098C430.22 190.575 430.479 189.205 431.083 187.989C431.687 186.773 432.55 185.815 433.675 185.114C434.799 184.414 436.077 184.023 437.509 183.942C438.941 183.861 440.255 184.104 441.451 184.673C442.647 185.242 443.614 186.096 444.351 187.236C445.089 188.376 445.501 189.708 445.587 191.23C445.674 192.753 445.406 194.123 444.784 195.34C444.162 196.557 443.271 197.526 442.112 198.247C440.97 198.948 439.683 199.339 438.251 199.421ZM438.098 196.729C438.896 196.684 439.628 196.451 440.295 196.031C440.981 195.611 441.519 195.007 441.911 194.221C442.303 193.435 442.468 192.498 442.406 191.411C442.344 190.323 442.084 189.42 441.625 188.7C441.165 187.962 440.579 187.423 439.869 187.081C439.159 186.74 438.405 186.592 437.607 186.637C436.809 186.682 436.077 186.915 435.41 187.334C434.761 187.753 434.259 188.354 433.903 189.138C433.546 189.904 433.399 190.831 433.461 191.919C433.552 193.532 434.031 194.759 434.897 195.601C435.78 196.424 436.847 196.8 438.098 196.729ZM451.035 178.264L452.177 198.385L449.077 198.561L447.935 178.44L451.035 178.264ZM468.964 182.402L469.814 197.383L466.714 197.559L466.614 195.792C466.16 196.436 465.544 196.962 464.767 197.37C464.007 197.759 463.183 197.978 462.295 198.028C461.117 198.095 460.042 197.911 459.072 197.475C458.12 197.038 457.345 196.355 456.746 195.425C456.166 194.494 455.837 193.349 455.76 191.989L455.26 183.18L458.333 183.005L458.806 191.353C458.883 192.694 459.277 193.708 459.988 194.395C460.699 195.064 461.635 195.366 462.795 195.3C463.955 195.234 464.85 194.828 465.481 194.083C466.128 193.319 466.414 192.266 466.338 190.925L465.864 182.578L468.964 182.402ZM476.813 184.493L477.284 192.786C477.316 193.348 477.466 193.749 477.734 193.988C478.019 194.208 478.479 194.3 479.114 194.264L481.017 194.156L481.163 196.739L478.716 196.878C477.321 196.957 476.233 196.692 475.452 196.081C474.672 195.471 474.24 194.432 474.157 192.963L473.686 184.671L471.919 184.771L471.775 182.242L473.543 182.142L473.331 178.417L476.458 178.24L476.67 181.965L480.313 181.758L480.457 184.286L476.813 184.493ZM484.634 179.521C484.072 179.553 483.59 179.389 483.188 179.03C482.786 178.671 482.569 178.211 482.537 177.649C482.505 177.087 482.668 176.605 483.027 176.203C483.386 175.8 483.847 175.583 484.409 175.551C484.953 175.521 485.426 175.685 485.828 176.044C486.23 176.403 486.447 176.863 486.479 177.425C486.511 177.987 486.347 178.469 485.988 178.871C485.629 179.274 485.178 179.49 484.634 179.521ZM486.269 181.42L487.12 196.401L484.02 196.577L483.17 181.596L486.269 181.42ZM497.702 196.046C496.288 196.126 494.992 195.881 493.814 195.312C492.635 194.724 491.686 193.869 490.968 192.746C490.248 191.605 489.845 190.264 489.757 188.723C489.671 187.2 489.93 185.831 490.533 184.614C491.137 183.398 492.001 182.44 493.125 181.74C494.249 181.039 495.527 180.649 496.959 180.567C498.391 180.486 499.705 180.73 500.901 181.298C502.098 181.867 503.064 182.721 503.802 183.861C504.539 185.001 504.951 186.333 505.038 187.855C505.124 189.378 504.857 190.748 504.235 191.965C503.613 193.183 502.722 194.152 501.563 194.872C500.421 195.573 499.134 195.965 497.702 196.046ZM497.549 193.354C498.346 193.309 499.079 193.076 499.746 192.657C500.431 192.236 500.97 191.632 501.362 190.846C501.753 190.06 501.918 189.124 501.857 188.036C501.795 186.948 501.535 186.045 501.075 185.325C500.615 184.588 500.03 184.048 499.32 183.707C498.609 183.365 497.855 183.217 497.058 183.262C496.26 183.307 495.528 183.54 494.861 183.96C494.212 184.378 493.709 184.98 493.354 185.764C492.997 186.529 492.85 187.456 492.911 188.544C493.003 190.157 493.482 191.385 494.348 192.226C495.231 193.049 496.298 193.425 497.549 193.354ZM515.222 179.531C516.401 179.464 517.466 179.649 518.418 180.086C519.388 180.522 520.164 181.205 520.744 182.136C521.324 183.067 521.653 184.212 521.73 185.571L522.232 194.408L519.159 194.582L518.684 186.208C518.608 184.867 518.214 183.861 517.503 183.193C516.792 182.506 515.856 182.195 514.695 182.261C513.535 182.327 512.632 182.742 511.984 183.506C511.353 184.251 511.076 185.294 511.152 186.635L511.628 195.01L508.528 195.186L507.678 180.204L510.777 180.028L510.874 181.741C511.347 181.096 511.963 180.579 512.723 180.191C513.501 179.801 514.334 179.581 515.222 179.531ZM531.637 194.119C530.459 194.186 529.387 194.038 528.42 193.675C527.471 193.292 526.704 192.754 526.119 192.06C525.533 191.347 525.197 190.539 525.109 189.635L528.317 189.453C528.408 190.084 528.737 190.602 529.305 191.006C529.891 191.391 530.601 191.56 531.435 191.512C532.305 191.463 532.966 191.262 533.419 190.909C533.889 190.537 534.109 190.088 534.079 189.562C534.047 189 533.751 188.599 533.192 188.358C532.651 188.116 531.791 187.864 530.613 187.604C529.471 187.359 528.539 187.112 527.816 186.862C527.092 186.613 526.451 186.203 525.891 185.635C525.35 185.066 525.051 184.292 524.995 183.313C524.95 182.515 525.145 181.777 525.579 181.098C526.012 180.4 526.653 179.836 527.501 179.406C528.368 178.975 529.372 178.727 530.514 178.663C532.218 178.566 533.611 178.923 534.694 179.735C535.794 180.527 536.422 181.664 536.579 183.146L533.479 183.322C533.387 182.655 533.084 182.135 532.572 181.764C532.06 181.393 531.387 181.232 530.554 181.279C529.738 181.325 529.121 181.515 528.704 181.848C528.286 182.18 528.092 182.601 528.121 183.108C528.143 183.507 528.307 183.834 528.613 184.089C528.918 184.345 529.284 184.542 529.71 184.682C530.135 184.803 530.763 184.959 531.592 185.148C532.696 185.376 533.601 185.625 534.307 185.894C535.03 186.144 535.662 186.544 536.203 187.096C536.743 187.647 537.05 188.402 537.123 189.362C537.171 190.214 536.978 190.989 536.545 191.686C536.112 192.383 535.471 192.947 534.623 193.377C533.792 193.806 532.797 194.054 531.637 194.119Z" fill="white" />
</svg>
